%FSLAX34Y34*%
%MOMM*%
%LNSILK_TOP*%
G71*
G01*
%ADD10C, 0.300*%
%ADD11C, 0.144*%
%ADD12C, 0.150*%
%ADD13C, 0.222*%
%LPD*%
G54D10*
X269041Y425294D02*
X129041Y425294D01*
X129041Y280294D01*
X269041Y280294D01*
X269041Y425294D01*
G54D11*
X184241Y457794D02*
X184241Y451294D01*
G54D11*
X184241Y452738D02*
X183374Y451583D01*
X181641Y451294D01*
X179908Y451583D01*
X179041Y452738D01*
X179041Y457794D01*
G54D11*
X187419Y452016D02*
X189152Y451294D01*
X190886Y451294D01*
X192619Y452016D01*
X192619Y453461D01*
X191752Y454183D01*
X188286Y454905D01*
X187419Y455627D01*
X187419Y457072D01*
X189152Y457794D01*
X190886Y457794D01*
X192619Y457072D01*
G54D11*
X195797Y451294D02*
X195797Y462850D01*
G54D11*
X195797Y455916D02*
X196664Y457361D01*
X198397Y457794D01*
X200130Y457361D01*
X200997Y455916D01*
X200997Y453027D01*
X200130Y451583D01*
X198397Y451294D01*
X196664Y451583D01*
X195797Y453027D01*
G54D11*
X207526Y457794D02*
X207526Y448405D01*
G54D11*
X207526Y453461D02*
X208393Y451583D01*
X210126Y451294D01*
X211859Y451583D01*
X212726Y453027D01*
X212726Y455916D01*
X211859Y457361D01*
X210126Y457794D01*
X208393Y457361D01*
X207526Y455627D01*
G54D11*
X221104Y453027D02*
X221104Y455916D01*
X220237Y457361D01*
X218504Y457794D01*
X216771Y457361D01*
X215904Y455916D01*
X215904Y453027D01*
X216771Y451583D01*
X218504Y451294D01*
X220237Y451583D01*
X221104Y453027D01*
G54D11*
X224282Y451294D02*
X224282Y457794D01*
G54D11*
X224282Y456350D02*
X226015Y457794D01*
X227749Y457794D01*
G54D11*
X232660Y462850D02*
X232660Y452016D01*
X233527Y451294D01*
X234394Y451583D01*
G54D11*
X230927Y457794D02*
X234394Y457794D01*
G54D10*
X469041Y425294D02*
X329041Y425294D01*
X329041Y280294D01*
X469041Y280294D01*
X469041Y425294D01*
G54D11*
X374241Y457794D02*
X374241Y451294D01*
G54D11*
X374241Y452738D02*
X373374Y451583D01*
X371641Y451294D01*
X369908Y451583D01*
X369041Y452738D01*
X369041Y457794D01*
G54D11*
X377419Y452016D02*
X379152Y451294D01*
X380886Y451294D01*
X382619Y452016D01*
X382619Y453461D01*
X381752Y454183D01*
X378286Y454905D01*
X377419Y455627D01*
X377419Y457072D01*
X379152Y457794D01*
X380886Y457794D01*
X382619Y457072D01*
G54D11*
X385797Y451294D02*
X385797Y462850D01*
G54D11*
X385797Y455916D02*
X386664Y457361D01*
X388397Y457794D01*
X390130Y457361D01*
X390997Y455916D01*
X390997Y453027D01*
X390130Y451583D01*
X388397Y451294D01*
X386664Y451583D01*
X385797Y453027D01*
G54D11*
X397526Y457794D02*
X397526Y448405D01*
G54D11*
X397526Y453461D02*
X398393Y451583D01*
X400126Y451294D01*
X401859Y451583D01*
X402726Y453027D01*
X402726Y455916D01*
X401859Y457361D01*
X400126Y457794D01*
X398393Y457361D01*
X397526Y455627D01*
G54D11*
X411104Y453027D02*
X411104Y455916D01*
X410237Y457361D01*
X408504Y457794D01*
X406771Y457361D01*
X405904Y455916D01*
X405904Y453027D01*
X406771Y451583D01*
X408504Y451294D01*
X410237Y451583D01*
X411104Y453027D01*
G54D11*
X414282Y451294D02*
X414282Y457794D01*
G54D11*
X414282Y456350D02*
X416015Y457794D01*
X417749Y457794D01*
G54D11*
X422660Y462850D02*
X422660Y452016D01*
X423527Y451294D01*
X424394Y451583D01*
G54D11*
X420927Y457794D02*
X424394Y457794D01*
G54D10*
X669041Y425294D02*
X529041Y425294D01*
X529041Y280294D01*
X669041Y280294D01*
X669041Y425294D01*
G54D11*
X584241Y447794D02*
X584241Y441294D01*
G54D11*
X584241Y442738D02*
X583374Y441583D01*
X581641Y441294D01*
X579908Y441583D01*
X579041Y442738D01*
X579041Y447794D01*
G54D11*
X587419Y442016D02*
X589152Y441294D01*
X590886Y441294D01*
X592619Y442016D01*
X592619Y443461D01*
X591752Y444183D01*
X588286Y444905D01*
X587419Y445627D01*
X587419Y447072D01*
X589152Y447794D01*
X590886Y447794D01*
X592619Y447072D01*
G54D11*
X595797Y441294D02*
X595797Y452850D01*
G54D11*
X595797Y445916D02*
X596664Y447361D01*
X598397Y447794D01*
X600130Y447361D01*
X600997Y445916D01*
X600997Y443027D01*
X600130Y441583D01*
X598397Y441294D01*
X596664Y441583D01*
X595797Y443027D01*
G54D11*
X607526Y447794D02*
X607526Y438405D01*
G54D11*
X607526Y443461D02*
X608393Y441583D01*
X610126Y441294D01*
X611859Y441583D01*
X612726Y443027D01*
X612726Y445916D01*
X611859Y447361D01*
X610126Y447794D01*
X608393Y447361D01*
X607526Y445627D01*
G54D11*
X621104Y443027D02*
X621104Y445916D01*
X620237Y447361D01*
X618504Y447794D01*
X616771Y447361D01*
X615904Y445916D01*
X615904Y443027D01*
X616771Y441583D01*
X618504Y441294D01*
X620237Y441583D01*
X621104Y443027D01*
G54D11*
X624282Y441294D02*
X624282Y447794D01*
G54D11*
X624282Y446350D02*
X626015Y447794D01*
X627749Y447794D01*
G54D11*
X632660Y452850D02*
X632660Y442016D01*
X633527Y441294D01*
X634394Y441583D01*
G54D11*
X630927Y447794D02*
X634394Y447794D01*
G54D10*
X650699Y647484D02*
X650699Y567484D01*
X750699Y567484D01*
G54D10*
X650699Y647484D02*
X750699Y647484D01*
X750699Y567484D01*
G54D11*
X679200Y544985D02*
X679200Y551485D01*
G54D11*
X679200Y553651D02*
X679200Y553651D01*
G54D11*
X682378Y544985D02*
X682378Y551485D01*
G54D11*
X682378Y550040D02*
X683244Y551051D01*
X684978Y551485D01*
X686711Y551051D01*
X687578Y550040D01*
X687578Y544985D01*
G54D11*
X690756Y551485D02*
X690756Y542096D01*
G54D11*
X690756Y547151D02*
X691622Y545274D01*
X693356Y544985D01*
X695089Y545274D01*
X695956Y546718D01*
X695956Y549607D01*
X695089Y551051D01*
X693356Y551485D01*
X691622Y551051D01*
X690756Y549318D01*
G54D11*
X704334Y551485D02*
X704334Y544985D01*
G54D11*
X704334Y546429D02*
X703467Y545274D01*
X701734Y544985D01*
X700000Y545274D01*
X699134Y546429D01*
X699134Y551485D01*
G54D11*
X709245Y556540D02*
X709245Y545707D01*
X710112Y544985D01*
X710978Y545274D01*
G54D11*
X707512Y551485D02*
X710978Y551485D01*
G54D10*
X198118Y646910D02*
X198118Y466910D01*
X118118Y466910D01*
X118118Y646910D01*
X198118Y646910D01*
G54D11*
X127687Y524742D02*
X137076Y524742D01*
G54D11*
X132021Y524742D02*
X133898Y525609D01*
X134187Y527342D01*
X133898Y529076D01*
X132454Y529942D01*
X129565Y529942D01*
X128121Y529076D01*
X127687Y527342D01*
X128121Y525609D01*
X129854Y524742D01*
G54D11*
X132454Y538320D02*
X129565Y538320D01*
X128121Y537454D01*
X127687Y535720D01*
X128121Y533987D01*
X129565Y533120D01*
X132454Y533120D01*
X133898Y533987D01*
X134187Y535720D01*
X133898Y537454D01*
X132454Y538320D01*
G54D11*
X134187Y541498D02*
X122632Y541498D01*
G54D11*
X127687Y544676D02*
X134187Y548143D01*
X127687Y551610D01*
G54D11*
X134187Y548143D02*
X136354Y547276D01*
X137076Y546410D01*
X137076Y545543D01*
G54D11*
X133465Y554787D02*
X134187Y556521D01*
X134187Y558254D01*
X133465Y559987D01*
X132021Y559987D01*
X131298Y559121D01*
X130576Y555654D01*
X129854Y554787D01*
X128410Y554787D01*
X127687Y556521D01*
X127687Y558254D01*
X128410Y559987D01*
G54D11*
X127687Y563165D02*
X134187Y565765D01*
X127687Y568365D01*
X134187Y570965D01*
X127687Y572699D01*
G54D11*
X134187Y575876D02*
X127687Y575876D01*
G54D11*
X125521Y575876D02*
X125521Y575876D01*
G54D11*
X122632Y580788D02*
X133465Y580788D01*
X134187Y581654D01*
X133898Y582521D01*
G54D11*
X127687Y579054D02*
X127687Y582521D01*
G54D11*
X128121Y590033D02*
X127687Y588299D01*
X128121Y586566D01*
X129565Y585699D01*
X132454Y585699D01*
X133898Y586566D01*
X134187Y588299D01*
X133898Y590033D01*
G54D11*
X134187Y593210D02*
X122632Y593210D01*
G54D11*
X129565Y593210D02*
X128121Y594077D01*
X127687Y595810D01*
X128121Y597544D01*
X129565Y598410D01*
X134187Y598410D01*
G54D11*
X184785Y551590D02*
X184785Y544657D01*
X184063Y544657D01*
X182618Y545523D01*
X178285Y550723D01*
X176840Y551590D01*
X175396Y551590D01*
X173952Y550723D01*
X173229Y548990D01*
X173229Y547257D01*
X173952Y545523D01*
X175396Y544657D01*
G54D11*
X184785Y556501D02*
X186229Y556501D01*
X187674Y555634D01*
X187674Y554768D01*
G54D11*
X173229Y566612D02*
X173229Y559679D01*
X178285Y559679D01*
X178285Y560545D01*
X177563Y562279D01*
X177563Y564012D01*
X178285Y565745D01*
X179729Y566612D01*
X182618Y566612D01*
X184063Y565745D01*
X184785Y564012D01*
X184785Y562279D01*
X184063Y560545D01*
X182618Y559679D01*
G54D11*
X184785Y569790D02*
X173229Y574123D01*
X184785Y578456D01*
G54D11*
X180452Y571523D02*
X180452Y576723D01*
G54D10*
X278118Y646910D02*
X278118Y466910D01*
X198118Y466910D01*
X198118Y646910D01*
X278118Y646910D01*
G54D11*
X207687Y524742D02*
X217076Y524742D01*
G54D11*
X212021Y524742D02*
X213898Y525609D01*
X214187Y527342D01*
X213898Y529076D01*
X212454Y529942D01*
X209565Y529942D01*
X208121Y529076D01*
X207687Y527342D01*
X208121Y525609D01*
X209854Y524742D01*
G54D11*
X212454Y538320D02*
X209565Y538320D01*
X208121Y537454D01*
X207687Y535720D01*
X208121Y533987D01*
X209565Y533120D01*
X212454Y533120D01*
X213898Y533987D01*
X214187Y535720D01*
X213898Y537454D01*
X212454Y538320D01*
G54D11*
X214187Y541498D02*
X202632Y541498D01*
G54D11*
X207687Y544676D02*
X214187Y548143D01*
X207687Y551610D01*
G54D11*
X214187Y548143D02*
X216354Y547276D01*
X217076Y546410D01*
X217076Y545543D01*
G54D11*
X213465Y554787D02*
X214187Y556521D01*
X214187Y558254D01*
X213465Y559987D01*
X212021Y559987D01*
X211298Y559121D01*
X210576Y555654D01*
X209854Y554787D01*
X208410Y554787D01*
X207687Y556521D01*
X207687Y558254D01*
X208410Y559987D01*
G54D11*
X207687Y563165D02*
X214187Y565765D01*
X207687Y568365D01*
X214187Y570965D01*
X207687Y572699D01*
G54D11*
X214187Y575876D02*
X207687Y575876D01*
G54D11*
X205521Y575876D02*
X205521Y575876D01*
G54D11*
X202632Y580788D02*
X213465Y580788D01*
X214187Y581654D01*
X213898Y582521D01*
G54D11*
X207687Y579054D02*
X207687Y582521D01*
G54D11*
X208121Y590033D02*
X207687Y588299D01*
X208121Y586566D01*
X209565Y585699D01*
X212454Y585699D01*
X213898Y586566D01*
X214187Y588299D01*
X213898Y590033D01*
G54D11*
X214187Y593210D02*
X202632Y593210D01*
G54D11*
X209565Y593210D02*
X208121Y594077D01*
X207687Y595810D01*
X208121Y597544D01*
X209565Y598410D01*
X214187Y598410D01*
G54D11*
X264785Y551590D02*
X264785Y544657D01*
X264063Y544657D01*
X262618Y545523D01*
X258285Y550723D01*
X256840Y551590D01*
X255396Y551590D01*
X253952Y550723D01*
X253229Y548990D01*
X253229Y547257D01*
X253952Y545523D01*
X255396Y544657D01*
G54D11*
X264785Y556501D02*
X266229Y556501D01*
X267674Y555634D01*
X267674Y554768D01*
G54D11*
X253229Y566612D02*
X253229Y559679D01*
X258285Y559679D01*
X258285Y560545D01*
X257563Y562279D01*
X257563Y564012D01*
X258285Y565745D01*
X259729Y566612D01*
X262618Y566612D01*
X264063Y565745D01*
X264785Y564012D01*
X264785Y562279D01*
X264063Y560545D01*
X262618Y559679D01*
G54D11*
X264785Y569790D02*
X253229Y574123D01*
X264785Y578456D01*
G54D11*
X260452Y571523D02*
X260452Y576723D01*
G54D10*
X358118Y646910D02*
X358118Y466910D01*
X278118Y466910D01*
X278118Y646910D01*
X358118Y646910D01*
G54D11*
X287687Y534742D02*
X297076Y534742D01*
G54D11*
X292021Y534742D02*
X293898Y535609D01*
X294187Y537342D01*
X293898Y539076D01*
X292454Y539942D01*
X289565Y539942D01*
X288121Y539076D01*
X287687Y537342D01*
X288121Y535609D01*
X289854Y534742D01*
G54D11*
X292454Y548320D02*
X289565Y548320D01*
X288121Y547454D01*
X287687Y545720D01*
X288121Y543987D01*
X289565Y543120D01*
X292454Y543120D01*
X293898Y543987D01*
X294187Y545720D01*
X293898Y547454D01*
X292454Y548320D01*
G54D11*
X294187Y551498D02*
X282632Y551498D01*
G54D11*
X287687Y554676D02*
X294187Y558143D01*
X287687Y561610D01*
G54D11*
X294187Y558143D02*
X296354Y557276D01*
X297076Y556410D01*
X297076Y555543D01*
G54D11*
X293465Y564787D02*
X294187Y566521D01*
X294187Y568254D01*
X293465Y569987D01*
X292021Y569987D01*
X291298Y569121D01*
X290576Y565654D01*
X289854Y564787D01*
X288410Y564787D01*
X287687Y566521D01*
X287687Y568254D01*
X288410Y569987D01*
G54D11*
X287687Y573165D02*
X294187Y575765D01*
X287687Y578365D01*
X294187Y580965D01*
X287687Y582699D01*
G54D11*
X294187Y585876D02*
X287687Y585876D01*
G54D11*
X285521Y585876D02*
X285521Y585876D01*
G54D11*
X282632Y590788D02*
X293465Y590788D01*
X294187Y591654D01*
X293898Y592521D01*
G54D11*
X287687Y589054D02*
X287687Y592521D01*
G54D11*
X288121Y600033D02*
X287687Y598299D01*
X288121Y596566D01*
X289565Y595699D01*
X292454Y595699D01*
X293898Y596566D01*
X294187Y598299D01*
X293898Y600033D01*
G54D11*
X294187Y603210D02*
X282632Y603210D01*
G54D11*
X289565Y603210D02*
X288121Y604077D01*
X287687Y605810D01*
X288121Y607544D01*
X289565Y608410D01*
X294187Y608410D01*
G54D11*
X344785Y551590D02*
X344785Y544657D01*
X344063Y544657D01*
X342618Y545523D01*
X338285Y550723D01*
X336840Y551590D01*
X335396Y551590D01*
X333952Y550723D01*
X333229Y548990D01*
X333229Y547257D01*
X333952Y545523D01*
X335396Y544657D01*
G54D11*
X344785Y556501D02*
X346229Y556501D01*
X347674Y555634D01*
X347674Y554768D01*
G54D11*
X333229Y566612D02*
X333229Y559679D01*
X338285Y559679D01*
X338285Y560545D01*
X337563Y562279D01*
X337563Y564012D01*
X338285Y565745D01*
X339729Y566612D01*
X342618Y566612D01*
X344063Y565745D01*
X344785Y564012D01*
X344785Y562279D01*
X344063Y560545D01*
X342618Y559679D01*
G54D11*
X344785Y569790D02*
X333229Y574123D01*
X344785Y578456D01*
G54D11*
X340452Y571523D02*
X340452Y576723D01*
G54D10*
X438118Y646910D02*
X438118Y466910D01*
X358118Y466910D01*
X358118Y646910D01*
X438118Y646910D01*
G54D11*
X367687Y534742D02*
X377076Y534742D01*
G54D11*
X372021Y534742D02*
X373898Y535609D01*
X374187Y537342D01*
X373898Y539076D01*
X372454Y539942D01*
X369565Y539942D01*
X368121Y539076D01*
X367687Y537342D01*
X368121Y535609D01*
X369854Y534742D01*
G54D11*
X372454Y548320D02*
X369565Y548320D01*
X368121Y547454D01*
X367687Y545720D01*
X368121Y543987D01*
X369565Y543120D01*
X372454Y543120D01*
X373898Y543987D01*
X374187Y545720D01*
X373898Y547454D01*
X372454Y548320D01*
G54D11*
X374187Y551498D02*
X362632Y551498D01*
G54D11*
X367687Y554676D02*
X374187Y558143D01*
X367687Y561610D01*
G54D11*
X374187Y558143D02*
X376354Y557276D01*
X377076Y556410D01*
X377076Y555543D01*
G54D11*
X373465Y564787D02*
X374187Y566521D01*
X374187Y568254D01*
X373465Y569987D01*
X372021Y569987D01*
X371298Y569121D01*
X370576Y565654D01*
X369854Y564787D01*
X368410Y564787D01*
X367687Y566521D01*
X367687Y568254D01*
X368410Y569987D01*
G54D11*
X367687Y573165D02*
X374187Y575765D01*
X367687Y578365D01*
X374187Y580965D01*
X367687Y582699D01*
G54D11*
X374187Y585876D02*
X367687Y585876D01*
G54D11*
X365521Y585876D02*
X365521Y585876D01*
G54D11*
X362632Y590788D02*
X373465Y590788D01*
X374187Y591654D01*
X373898Y592521D01*
G54D11*
X367687Y589054D02*
X367687Y592521D01*
G54D11*
X368121Y600033D02*
X367687Y598299D01*
X368121Y596566D01*
X369565Y595699D01*
X372454Y595699D01*
X373898Y596566D01*
X374187Y598299D01*
X373898Y600033D01*
G54D11*
X374187Y603210D02*
X362632Y603210D01*
G54D11*
X369565Y603210D02*
X368121Y604077D01*
X367687Y605810D01*
X368121Y607544D01*
X369565Y608410D01*
X374187Y608410D01*
G54D11*
X424785Y551590D02*
X424785Y544657D01*
X424063Y544657D01*
X422618Y545523D01*
X418285Y550723D01*
X416840Y551590D01*
X415396Y551590D01*
X413952Y550723D01*
X413229Y548990D01*
X413229Y547257D01*
X413952Y545523D01*
X415396Y544657D01*
G54D11*
X424785Y556501D02*
X426229Y556501D01*
X427674Y555634D01*
X427674Y554768D01*
G54D11*
X413229Y566612D02*
X413229Y559679D01*
X418285Y559679D01*
X418285Y560545D01*
X417563Y562279D01*
X417563Y564012D01*
X418285Y565745D01*
X419729Y566612D01*
X422618Y566612D01*
X424063Y565745D01*
X424785Y564012D01*
X424785Y562279D01*
X424063Y560545D01*
X422618Y559679D01*
G54D11*
X424785Y569790D02*
X413229Y574123D01*
X424785Y578456D01*
G54D11*
X420452Y571523D02*
X420452Y576723D01*
G54D10*
X518118Y646910D02*
X518118Y466910D01*
X438118Y466910D01*
X438118Y646910D01*
X518118Y646910D01*
G54D11*
X447687Y524742D02*
X457076Y524742D01*
G54D11*
X452021Y524742D02*
X453898Y525609D01*
X454187Y527342D01*
X453898Y529076D01*
X452454Y529942D01*
X449565Y529942D01*
X448121Y529076D01*
X447687Y527342D01*
X448121Y525609D01*
X449854Y524742D01*
G54D11*
X452454Y538320D02*
X449565Y538320D01*
X448121Y537454D01*
X447687Y535720D01*
X448121Y533987D01*
X449565Y533120D01*
X452454Y533120D01*
X453898Y533987D01*
X454187Y535720D01*
X453898Y537454D01*
X452454Y538320D01*
G54D11*
X454187Y541498D02*
X442632Y541498D01*
G54D11*
X447687Y544676D02*
X454187Y548143D01*
X447687Y551610D01*
G54D11*
X454187Y548143D02*
X456354Y547276D01*
X457076Y546410D01*
X457076Y545543D01*
G54D11*
X453465Y554787D02*
X454187Y556521D01*
X454187Y558254D01*
X453465Y559987D01*
X452021Y559987D01*
X451298Y559121D01*
X450576Y555654D01*
X449854Y554787D01*
X448410Y554787D01*
X447687Y556521D01*
X447687Y558254D01*
X448410Y559987D01*
G54D11*
X447687Y563165D02*
X454187Y565765D01*
X447687Y568365D01*
X454187Y570965D01*
X447687Y572699D01*
G54D11*
X454187Y575876D02*
X447687Y575876D01*
G54D11*
X445521Y575876D02*
X445521Y575876D01*
G54D11*
X442632Y580788D02*
X453465Y580788D01*
X454187Y581654D01*
X453898Y582521D01*
G54D11*
X447687Y579054D02*
X447687Y582521D01*
G54D11*
X448121Y590033D02*
X447687Y588299D01*
X448121Y586566D01*
X449565Y585699D01*
X452454Y585699D01*
X453898Y586566D01*
X454187Y588299D01*
X453898Y590033D01*
G54D11*
X454187Y593210D02*
X442632Y593210D01*
G54D11*
X449565Y593210D02*
X448121Y594077D01*
X447687Y595810D01*
X448121Y597544D01*
X449565Y598410D01*
X454187Y598410D01*
G54D11*
X494785Y551590D02*
X494785Y544657D01*
X494063Y544657D01*
X492618Y545523D01*
X488285Y550723D01*
X486840Y551590D01*
X485396Y551590D01*
X483952Y550723D01*
X483229Y548990D01*
X483229Y547257D01*
X483952Y545523D01*
X485396Y544657D01*
G54D11*
X494785Y556501D02*
X496229Y556501D01*
X497674Y555634D01*
X497674Y554768D01*
G54D11*
X483229Y566612D02*
X483229Y559679D01*
X488285Y559679D01*
X488285Y560545D01*
X487563Y562279D01*
X487563Y564012D01*
X488285Y565745D01*
X489729Y566612D01*
X492618Y566612D01*
X494063Y565745D01*
X494785Y564012D01*
X494785Y562279D01*
X494063Y560545D01*
X492618Y559679D01*
G54D11*
X494785Y569790D02*
X483229Y574123D01*
X494785Y578456D01*
G54D11*
X490452Y571523D02*
X490452Y576723D01*
G54D10*
X600118Y646910D02*
X600118Y466910D01*
X520118Y466910D01*
X520118Y646910D01*
X600118Y646910D01*
G54D11*
X529687Y524742D02*
X539076Y524742D01*
G54D11*
X534021Y524742D02*
X535898Y525609D01*
X536187Y527342D01*
X535898Y529076D01*
X534454Y529942D01*
X531565Y529942D01*
X530121Y529076D01*
X529687Y527342D01*
X530121Y525609D01*
X531854Y524742D01*
G54D11*
X534454Y538320D02*
X531565Y538320D01*
X530121Y537454D01*
X529687Y535720D01*
X530121Y533987D01*
X531565Y533120D01*
X534454Y533120D01*
X535898Y533987D01*
X536187Y535720D01*
X535898Y537454D01*
X534454Y538320D01*
G54D11*
X536187Y541498D02*
X524632Y541498D01*
G54D11*
X529687Y544676D02*
X536187Y548143D01*
X529687Y551610D01*
G54D11*
X536187Y548143D02*
X538354Y547276D01*
X539076Y546410D01*
X539076Y545543D01*
G54D11*
X535465Y554787D02*
X536187Y556521D01*
X536187Y558254D01*
X535465Y559987D01*
X534021Y559987D01*
X533298Y559121D01*
X532576Y555654D01*
X531854Y554787D01*
X530410Y554787D01*
X529687Y556521D01*
X529687Y558254D01*
X530410Y559987D01*
G54D11*
X529687Y563165D02*
X536187Y565765D01*
X529687Y568365D01*
X536187Y570965D01*
X529687Y572699D01*
G54D11*
X536187Y575876D02*
X529687Y575876D01*
G54D11*
X527521Y575876D02*
X527521Y575876D01*
G54D11*
X524632Y580788D02*
X535465Y580788D01*
X536187Y581654D01*
X535898Y582521D01*
G54D11*
X529687Y579054D02*
X529687Y582521D01*
G54D11*
X530121Y590033D02*
X529687Y588299D01*
X530121Y586566D01*
X531565Y585699D01*
X534454Y585699D01*
X535898Y586566D01*
X536187Y588299D01*
X535898Y590033D01*
G54D11*
X536187Y593210D02*
X524632Y593210D01*
G54D11*
X531565Y593210D02*
X530121Y594077D01*
X529687Y595810D01*
X530121Y597544D01*
X531565Y598410D01*
X536187Y598410D01*
G54D11*
X586785Y541590D02*
X586785Y534657D01*
X586063Y534657D01*
X584618Y535523D01*
X580285Y540723D01*
X578840Y541590D01*
X577396Y541590D01*
X575952Y540723D01*
X575229Y538990D01*
X575229Y537257D01*
X575952Y535523D01*
X577396Y534657D01*
G54D11*
X586785Y546501D02*
X588229Y546501D01*
X589674Y545634D01*
X589674Y544768D01*
G54D11*
X575229Y556612D02*
X575229Y549679D01*
X580285Y549679D01*
X580285Y550545D01*
X579563Y552279D01*
X579563Y554012D01*
X580285Y555745D01*
X581729Y556612D01*
X584618Y556612D01*
X586063Y555745D01*
X586785Y554012D01*
X586785Y552279D01*
X586063Y550545D01*
X584618Y549679D01*
G54D11*
X586785Y559790D02*
X575229Y564123D01*
X586785Y568456D01*
G54D11*
X582452Y561523D02*
X582452Y566723D01*
G54D12*
G75*
G01X722907Y311550D02*
G03X750844Y306623I15893J8450D01*
G01*
G54D12*
G75*
G01X750370Y333789D02*
G03X722907Y328451I-11570J-13789D01*
G01*
G54D12*
X750800Y306500D02*
X750800Y311300D01*
G54D12*
X750700Y333500D02*
X750700Y328700D01*
G54D11*
X758000Y275276D02*
X758000Y275276D01*
G54D11*
X758000Y294776D02*
X758000Y294776D01*
G54D13*
X680000Y637778D02*
X690667Y637778D01*
G54D13*
X685333Y642222D02*
X685333Y633333D01*
G54D12*
X733798Y428974D02*
X752798Y428974D01*
X752798Y390974D01*
X733798Y390974D01*
X733798Y428974D01*
G54D12*
X743298Y429074D02*
X743298Y436974D01*
G54D12*
X743298Y390974D02*
X743298Y383074D01*
G54D11*
X715423Y367097D02*
X716868Y369697D01*
X718312Y370563D01*
X721201Y370563D01*
G54D11*
X721201Y363630D02*
X709645Y363630D01*
X709645Y367963D01*
X710368Y369697D01*
X711812Y370563D01*
X713257Y370563D01*
X714701Y369697D01*
X715423Y367963D01*
X715423Y363630D01*
G54D11*
X713979Y373741D02*
X709645Y378074D01*
X721201Y378074D01*
G54D11*
X714382Y393383D02*
X710048Y397716D01*
X721604Y397716D01*
G54D11*
X710048Y407827D02*
X710048Y400894D01*
X715104Y400894D01*
X715104Y401761D01*
X714382Y403494D01*
X714382Y405227D01*
X715104Y406961D01*
X716548Y407827D01*
X719437Y407827D01*
X720882Y406961D01*
X721604Y405227D01*
X721604Y403494D01*
X720882Y401761D01*
X719437Y400894D01*
G54D11*
X712215Y417938D02*
X719437Y417938D01*
X720882Y417072D01*
X721604Y415338D01*
X721604Y413605D01*
X720882Y411872D01*
X719437Y411005D01*
X712215Y411005D01*
X710771Y411872D01*
X710048Y413605D01*
X710048Y415338D01*
X710771Y417072D01*
X712215Y417938D01*
G54D11*
X715826Y424583D02*
X717271Y427183D01*
X718715Y428049D01*
X721604Y428049D01*
G54D11*
X721604Y421116D02*
X710048Y421116D01*
X710048Y425449D01*
X710771Y427183D01*
X712215Y428049D01*
X713660Y428049D01*
X715104Y427183D01*
X715826Y425449D01*
X715826Y421116D01*
M02*
