%FSLAX34Y34*%
%MOMM*%
%LNCOPPER_BOTTOM*%
G71*
G01*
%ADD10C, 2.000*%
%ADD11C, 3.000*%
%ADD12C, 1.000*%
%ADD13C, 3.500*%
%ADD14C, 1.800*%
%ADD15C, 1.100*%
%ADD16C, 4.000*%
%ADD17C, 2.400*%
%ADD18C, 2.000*%
%ADD19C, 0.100*%
%LPD*%
X236441Y410494D02*
G54D10*
D03*
X211041Y410494D02*
G54D10*
D03*
X185641Y410494D02*
G54D10*
D03*
X160241Y410494D02*
G54D10*
D03*
X236441Y385094D02*
G54D10*
D03*
X211041Y385094D02*
G54D10*
D03*
X185641Y385094D02*
G54D10*
D03*
X160241Y385094D02*
G54D10*
D03*
X269041Y425294D02*
G54D11*
D03*
X129041Y425294D02*
G54D11*
D03*
X129041Y370294D02*
G54D11*
D03*
X269041Y370294D02*
G54D11*
D03*
X436441Y410494D02*
G54D10*
D03*
X411041Y410494D02*
G54D10*
D03*
X385641Y410494D02*
G54D10*
D03*
X360241Y410494D02*
G54D10*
D03*
X436441Y385094D02*
G54D10*
D03*
X411041Y385094D02*
G54D10*
D03*
X385641Y385094D02*
G54D10*
D03*
X360241Y385094D02*
G54D10*
D03*
X469041Y425294D02*
G54D11*
D03*
X329041Y425294D02*
G54D11*
D03*
X329041Y370294D02*
G54D11*
D03*
X469041Y370294D02*
G54D11*
D03*
X636441Y410494D02*
G54D10*
D03*
X611041Y410494D02*
G54D10*
D03*
X585641Y410494D02*
G54D10*
D03*
X560241Y410494D02*
G54D10*
D03*
X636441Y385094D02*
G54D10*
D03*
X611041Y385094D02*
G54D10*
D03*
X585641Y385094D02*
G54D10*
D03*
X560241Y385094D02*
G54D10*
D03*
X669041Y425294D02*
G54D11*
D03*
X529041Y425294D02*
G54D11*
D03*
X529041Y370294D02*
G54D11*
D03*
X669041Y370294D02*
G54D11*
D03*
G54D12*
X236441Y410494D02*
X236441Y385094D01*
G54D12*
X185641Y410494D02*
X211041Y410494D01*
G54D12*
X185641Y385094D02*
X211041Y385094D01*
G54D12*
X129041Y370294D02*
X129041Y340959D01*
X140000Y330000D01*
X260000Y330000D01*
X270000Y340000D01*
X270000Y369335D01*
X269041Y370294D01*
G54D12*
X269041Y370294D02*
X269041Y425294D01*
G54D12*
X385641Y410494D02*
X411041Y410494D01*
G54D12*
X385641Y385094D02*
X411041Y385094D01*
G54D12*
X585641Y410494D02*
X611041Y410494D01*
G54D12*
X585641Y385094D02*
X611041Y385094D01*
G54D12*
X469041Y425294D02*
X469041Y370294D01*
X469041Y349041D01*
X450000Y330000D01*
X340000Y330000D01*
X330000Y340000D01*
X330000Y369335D01*
X329041Y370294D01*
G54D12*
X669041Y425294D02*
X669041Y370294D01*
G54D12*
X669041Y370294D02*
X669041Y349041D01*
X650000Y330000D01*
X550000Y330000D01*
X530000Y350000D01*
X530000Y369335D01*
X529041Y370294D01*
G54D12*
X436441Y385094D02*
X436441Y410494D01*
G54D12*
X636441Y385094D02*
X636441Y410494D01*
X675699Y602484D02*
G54D13*
D03*
X725699Y602484D02*
G54D13*
D03*
X158118Y606910D02*
G54D13*
D03*
X158118Y506910D02*
G54D13*
D03*
X238118Y606910D02*
G54D13*
D03*
X238118Y506910D02*
G54D13*
D03*
X318118Y606910D02*
G54D13*
D03*
X318118Y506910D02*
G54D13*
D03*
X398118Y606910D02*
G54D13*
D03*
X398118Y506910D02*
G54D13*
D03*
X478118Y606910D02*
G54D13*
D03*
X478118Y506910D02*
G54D13*
D03*
X560118Y606910D02*
G54D13*
D03*
X560118Y506910D02*
G54D13*
D03*
X750000Y320000D02*
G54D14*
D03*
X724600Y320000D02*
G54D14*
D03*
G54D15*
X160241Y385094D02*
X154656Y385094D01*
X142875Y396875D01*
X111125Y396875D01*
X101600Y406400D01*
X101600Y450392D01*
X158118Y506910D01*
G54D15*
X160241Y410494D02*
X160241Y429033D01*
X238118Y506910D01*
G54D15*
X360241Y385094D02*
X351506Y385094D01*
X339725Y396875D01*
X311150Y396875D01*
X298450Y409575D01*
X298450Y487242D01*
X318118Y506910D01*
G54D15*
X360241Y410494D02*
X360241Y469033D01*
X398118Y506910D01*
G54D15*
X560241Y385094D02*
X551530Y385094D01*
X539750Y396875D01*
X511175Y396875D01*
X501650Y406400D01*
X501650Y483378D01*
X478118Y506910D01*
G54D15*
X560241Y410494D02*
X560241Y506787D01*
X560118Y506910D01*
G54D15*
X236441Y410494D02*
X236441Y452341D01*
X279400Y495300D01*
X279400Y546100D01*
X292100Y558800D01*
X711200Y558800D01*
X723900Y571500D01*
X725699Y602484D01*
G54D15*
X436441Y410494D02*
X436441Y538041D01*
X457200Y558800D01*
G54D15*
X636441Y410494D02*
X636441Y534841D01*
X660400Y558800D01*
G54D16*
X158118Y606910D02*
X238118Y606910D01*
X318118Y606910D01*
X398118Y606910D01*
X478118Y606910D01*
X560118Y606910D01*
X671273Y606910D01*
X675699Y602484D01*
X743298Y448074D02*
G54D17*
D03*
X743298Y371874D02*
G54D17*
D03*
G54D12*
X743298Y371874D02*
X743298Y326702D01*
X750000Y320000D01*
G54D12*
X724600Y320000D02*
X720000Y320000D01*
X710000Y330000D01*
X710000Y557600D01*
X723900Y571500D01*
X723900Y600685D01*
X725699Y602484D01*
G54D12*
X675699Y602484D02*
X682484Y602484D01*
X710000Y630000D01*
X750000Y630000D01*
X760000Y620000D01*
X760000Y464776D01*
X743298Y448074D01*
G54D12*
X669041Y425294D02*
X669041Y516641D01*
X723900Y571500D01*
X723900Y600685D01*
X725699Y602484D01*
G54D18*
X269041Y370294D02*
X329041Y370294D01*
G54D18*
X469041Y370294D02*
X529041Y370294D01*
G36*
X725699Y602484D02*
X727516Y602484D01*
X740000Y590000D01*
X740000Y480000D01*
X730000Y470000D01*
X590000Y470000D01*
X590000Y520000D01*
X570000Y540000D01*
X130000Y540000D01*
X120000Y550000D01*
X120000Y575000D01*
X695000Y575000D01*
X710000Y590000D01*
X713215Y590000D01*
X725699Y602484D01*
G37*
G54D19*
X725699Y602484D02*
X727516Y602484D01*
X740000Y590000D01*
X740000Y480000D01*
X730000Y470000D01*
X590000Y470000D01*
X590000Y520000D01*
X570000Y540000D01*
X130000Y540000D01*
X120000Y550000D01*
X120000Y575000D01*
X695000Y575000D01*
X710000Y590000D01*
X713215Y590000D01*
X725699Y602484D01*
G36*
X695000Y575000D02*
X698825Y575000D01*
X701675Y577850D01*
X701675Y587375D01*
X708025Y593725D01*
X708025Y609600D01*
X739775Y609600D01*
X742950Y606425D01*
X742950Y574675D01*
X720725Y574675D01*
X717550Y571500D01*
X695000Y575000D01*
G37*
G54D19*
X695000Y575000D02*
X698825Y575000D01*
X701675Y577850D01*
X701675Y587375D01*
X708025Y593725D01*
X708025Y609600D01*
X739775Y609600D01*
X742950Y606425D01*
X742950Y574675D01*
X720725Y574675D01*
X717550Y571500D01*
X695000Y575000D01*
G36*
X129041Y370294D02*
X100294Y370294D01*
X100000Y370000D01*
X100000Y300000D01*
X150000Y300000D01*
X150000Y349335D01*
X129041Y370294D01*
G37*
G54D19*
X129041Y370294D02*
X100294Y370294D01*
X100000Y370000D01*
X100000Y300000D01*
X150000Y300000D01*
X150000Y349335D01*
X129041Y370294D01*
G36*
X140000Y360000D02*
X690000Y360000D01*
X690000Y300000D01*
X150000Y300000D01*
X150000Y349335D01*
X129041Y370294D01*
X140000Y360000D01*
G37*
G54D19*
X140000Y360000D02*
X690000Y360000D01*
X690000Y300000D01*
X150000Y300000D01*
X150000Y349335D01*
X129041Y370294D01*
X140000Y360000D01*
G36*
X690000Y360000D02*
X690000Y430000D01*
X673746Y430000D01*
X669041Y425294D01*
X669041Y370294D01*
X690000Y360000D01*
G37*
G54D19*
X690000Y360000D02*
X690000Y430000D01*
X673746Y430000D01*
X669041Y425294D01*
X669041Y370294D01*
X690000Y360000D01*
G36*
X650000Y360000D02*
X690000Y360000D01*
X690000Y370000D01*
X669335Y370000D01*
X669041Y370294D01*
X650000Y360000D01*
G37*
G54D19*
X650000Y360000D02*
X690000Y360000D01*
X690000Y370000D01*
X669335Y370000D01*
X669041Y370294D01*
X650000Y360000D01*
M02*
