; Drill file
; Format: 2.4 (00.0000)
M48
INCH
T01C0.0394
T02C0.0591
T03C0.0787
%
G05
G90
T01
X006310Y015160
X006310Y016160
X007310Y016160
X008310Y016160
X008310Y015160
X009310Y015160
X009310Y016160
X007310Y015160
X014180Y015160
X014180Y016160
X015180Y016160
X016180Y016160
X016180Y015160
X017180Y015160
X017180Y016160
X015180Y015160
X022060Y015160
X022060Y016160
X023060Y016160
X024060Y016160
X025060Y016160
X025060Y015160
X024060Y015160
X023060Y015160
X028530Y012600
X029530Y012600
X029260Y014640
X029260Y017640
T02
X006230Y019960
X009370Y019960
X012520Y019960
X015670Y019960
X018820Y019960
X022050Y019960
X022050Y023890
X018820Y023890
X015670Y023890
X012520Y023890
X009370Y023890
X006230Y023890
X026600Y023720
X028570Y023720
T03
X005080Y014580
X005080Y016740
X010590Y016740
X010590Y014580
X012950Y014580
X012950Y016740
X018470Y016740
X018470Y014580
X020830Y014580
X020830Y016740
X026340Y016740
X026340Y014580
M30
